<svg width="256" height="256" viewBox="0 0 256 256" fill="none" xmlns="http://www.w3.org/2000/svg">
<g clip-path="url(#clip0_1_2)">
<rect width="256" height="256" fill="#282A36"/>
<path d="M65.4023 84.0215L67.3066 89.5879C63.4329 90.7923 60.7637 92.957 59.2988 96.082C57.834 99.1745 57.1016 102.723 57.1016 106.727V116.834C57.1016 120.089 56.4342 123.051 55.0996 125.721C53.7975 128.357 51.7142 130.457 48.8496 132.02C46.0176 133.582 42.2904 134.363 37.668 134.363V128.406C41.3464 128.406 43.9831 127.365 45.5781 125.281C47.2057 123.198 48.0195 120.382 48.0195 116.834V106.727C48.0195 103.309 48.5404 100.118 49.582 97.1562C50.6562 94.1615 52.4466 91.541 54.9531 89.2949C57.4922 87.0163 60.9753 85.2585 65.4023 84.0215ZM67.3066 174.256L65.4023 179.871C60.9753 178.602 57.4922 176.844 54.9531 174.598C52.4466 172.352 50.6562 169.731 49.582 166.736C48.5404 163.774 48.0195 160.584 48.0195 157.166V147.107C48.0195 144.731 47.6615 142.68 46.9453 140.955C46.2292 139.23 45.1061 137.895 43.5762 136.951C42.0788 135.975 40.1094 135.486 37.668 135.486V129.529C42.2904 129.529 46.0176 130.311 48.8496 131.873C51.7142 133.436 53.7975 135.551 55.0996 138.221C56.4342 140.857 57.1016 143.82 57.1016 147.107V157.166C57.1016 159.835 57.4108 162.309 58.0293 164.588C58.6803 166.867 59.7383 168.836 61.2031 170.496C62.7005 172.189 64.735 173.442 67.3066 174.256ZM188.547 89.5879L190.451 84.0215C194.911 85.2585 198.394 87.0163 200.9 89.2949C203.439 91.541 205.23 94.1615 206.271 97.1562C207.313 100.118 207.834 103.309 207.834 106.727V116.834C207.834 119.178 208.192 121.229 208.908 122.986C209.624 124.712 210.731 126.046 212.229 126.99C213.758 127.934 215.744 128.406 218.186 128.406V133.924C213.596 133.924 209.868 133.191 207.004 131.727C204.139 130.229 202.04 128.195 200.705 125.623C199.403 123.019 198.752 120.089 198.752 116.834V106.727C198.752 104.057 198.443 101.583 197.824 99.3047C197.206 96.9935 196.148 95.0078 194.65 93.3477C193.186 91.6549 191.151 90.4017 188.547 89.5879ZM190.451 179.871L188.547 174.256C191.118 173.442 193.137 172.189 194.602 170.496C196.099 168.836 197.157 166.867 197.775 164.588C198.426 162.309 198.752 159.835 198.752 157.166V147.107C198.752 143.82 199.403 140.89 200.705 138.318C202.04 135.747 204.139 133.729 207.004 132.264C209.868 130.766 213.596 130.018 218.186 130.018V135.486C214.54 135.486 211.903 136.544 210.275 138.66C208.648 140.743 207.834 143.559 207.834 147.107V157.166C207.834 160.584 207.313 163.774 206.271 166.736C205.23 169.731 203.439 172.352 200.9 174.598C198.394 176.844 194.911 178.602 190.451 179.871Z" fill="#FF79C6"/>
<path d="M103 97.2051L79.4648 162H69.8457L96.9453 90.9062H103.146L103 97.2051ZM122.727 162L99.1426 97.2051L98.9961 90.9062H105.197L132.395 162H122.727ZM121.506 135.682V143.396H81.5645V135.682H121.506ZM185.031 154.334V162H149.484V154.334H185.031ZM151.34 90.9062V162H141.916V90.9062H151.34Z" fill="#F8F8F2"/>
</g>
<defs>
<clipPath id="clip0_1_2">
<rect width="256" height="256" fill="white"/>
</clipPath>
</defs>
</svg>
