<svg width="182" height="94" viewBox="0 0 182 94" fill="none" xmlns="http://www.w3.org/2000/svg">
<path d="M28.4023 0.0214844L30.3066 5.58789C26.4329 6.79232 23.7637 8.95703 22.2988 12.082C20.834 15.1745 20.1016 18.7227 20.1016 22.7266V32.834C20.1016 36.0892 19.4342 39.0514 18.0996 41.7207C16.7975 44.3574 14.7142 46.457 11.8496 48.0195C9.01758 49.582 5.29036 50.3633 0.667969 50.3633V44.4062C4.34635 44.4062 6.98307 43.3646 8.57812 41.2812C10.2057 39.1979 11.0195 36.3822 11.0195 32.834V22.7266C11.0195 19.3086 11.5404 16.1185 12.582 13.1562C13.6562 10.1615 15.4466 7.54102 17.9531 5.29492C20.4922 3.01628 23.9753 1.25846 28.4023 0.0214844ZM30.3066 90.2559L28.4023 95.8711C23.9753 94.6016 20.4922 92.8438 17.9531 90.5977C15.4466 88.3516 13.6562 85.7311 12.582 82.7363C11.5404 79.7741 11.0195 76.584 11.0195 73.166V63.1074C11.0195 60.7311 10.6615 58.6803 9.94531 56.9551C9.22917 55.2298 8.10612 53.8952 6.57617 52.9512C5.07878 51.9746 3.10938 51.4863 0.667969 51.4863V45.5293C5.29036 45.5293 9.01758 46.3105 11.8496 47.873C14.7142 49.4355 16.7975 51.5514 18.0996 54.2207C19.4342 56.8574 20.1016 59.8197 20.1016 63.1074V73.166C20.1016 75.8353 20.4108 78.3092 21.0293 80.5879C21.6803 82.8665 22.7383 84.8359 24.2031 86.4961C25.7005 88.1888 27.735 89.4421 30.3066 90.2559ZM151.547 5.58789L153.451 0.0214844C157.911 1.25846 161.394 3.01628 163.9 5.29492C166.439 7.54102 168.23 10.1615 169.271 13.1562C170.313 16.1185 170.834 19.3086 170.834 22.7266V32.834C170.834 35.1777 171.192 37.2285 171.908 38.9863C172.624 40.7116 173.731 42.0462 175.229 42.9902C176.758 43.9342 178.744 44.4062 181.186 44.4062V49.9238C176.596 49.9238 172.868 49.1914 170.004 47.7266C167.139 46.2292 165.04 44.1947 163.705 41.623C162.403 39.0189 161.752 36.0892 161.752 32.834V22.7266C161.752 20.0573 161.443 17.5833 160.824 15.3047C160.206 12.9935 159.148 11.0078 157.65 9.34766C156.186 7.65495 154.151 6.40169 151.547 5.58789ZM153.451 95.8711L151.547 90.2559C154.118 89.4421 156.137 88.1888 157.602 86.4961C159.099 84.8359 160.157 82.8665 160.775 80.5879C161.426 78.3092 161.752 75.8353 161.752 73.166V63.1074C161.752 59.8197 162.403 56.89 163.705 54.3184C165.04 51.7467 167.139 49.7285 170.004 48.2637C172.868 46.7663 176.596 46.0176 181.186 46.0176V51.4863C177.54 51.4863 174.903 52.5443 173.275 54.6602C171.648 56.7435 170.834 59.5592 170.834 63.1074V73.166C170.834 76.584 170.313 79.7741 169.271 82.7363C168.23 85.7311 166.439 88.3516 163.9 90.5977C161.394 92.8438 157.911 94.6016 153.451 95.8711Z" fill="#FF79C6"/>
<path d="M66 13.2051L42.4648 78H32.8457L59.9453 6.90625H66.1465L66 13.2051ZM85.7266 78L62.1426 13.2051L61.9961 6.90625H68.1973L95.3945 78H85.7266ZM84.5059 51.6816V59.3965H44.5645V51.6816H84.5059ZM148.031 70.334V78H112.484V70.334H148.031ZM114.34 6.90625V78H104.916V6.90625H114.34Z" fill="#F8F8F2"/>
</svg>
